<svg xmlns="http://www.w3.org/2000/svg" xmlns:xlink="http://www.w3.org/1999/xlink" xmlns:lucid="lucid" width="1540" height="620"><g transform="translate(-20 -76)" lucid:page-tab-id="0_0"><path d="M1510 96c16.57 0 30 13.43 30 30v520c0 16.57-13.43 30-30 30H70c-16.57 0-30-13.43-30-30V126c0-16.57 13.43-30 30-30z" fill="none"/><path d="M1528.25 102.22l.3.2 3.66 3.4 1.52 1.98m5.93 14.3l.27 1.75.08 2.15v3.94m0 15.76v7.88m0 15.75v7.88m0 15.77v7.88m0 15.76v7.88m0 15.76v7.88m0 15.76v7.88m0 15.76v7.87m0 15.75v7.88m0 15.76v7.87m0 15.75v7.88m0 15.76v7.88m0 15.76v7.88m0 15.75v7.88m0 15.77v7.88m0 15.76v7.88m0 15.76v7.88m0 15.76v7.88m0 15.76v7.87m0 15.75v7.88m0 15.76v7.87m0 15.75v7.88m0 15.76V646l-.33 3.9m-5.9 14.35l-.18.3-3.43 3.66-1.97 1.52m-14.3 5.93l-1.75.27-2.15.08h-4m-16 0h-8m-16 0h-8m-16 0h-8m-16 0h-8m-16 0h-8m-16 0h-8m-16 0h-8m-16 0h-8m-16 0h-8m-16 0h-8m-16 0h-8m-16 0h-8m-16 0h-8m-16 0h-8m-16 0h-8m-16 0h-8m-16 0h-8m-16 0h-8m-16 0h-8m-16 0h-8m-16 0h-8m-16 0h-8m-16 0h-8m-16 0h-8m-16 0h-8m-16 0h-8m-16 0h-8m-16 0h-8m-16 0h-8m-16 0h-8m-16 0h-8m-16 0h-8m-16 0h-8m-16 0h-8m-16 0h-8m-16 0h-8m-16 0h-8m-16 0h-8m-16 0h-8m-16 0h-8m-16 0h-8m-16 0h-8m-16 0h-8m-16 0h-8m-16 0h-8m-16 0h-8m-16 0h-8m-16 0h-8m-16 0h-8m-16 0h-8m-16 0h-8m-16 0h-8m-16 0h-8m-16 0h-8m-16 0h-8m-16 0h-8m-16 0h-8m-16 0h-8m-16 0h-8m-16 0h-4l-3.9-.33m-14.35-5.9l-.3-.18-3.66-3.43-1.52-1.97m-5.93-14.3l-.27-1.75L40 646v-3.94m0-15.76v-7.88m0-15.75v-7.88m0-15.77v-7.88m0-15.76v-7.88m0-15.76v-7.88m0-15.76v-7.88m0-15.76v-7.87m0-15.75v-7.88m0-15.76v-7.87m0-15.75v-7.88m0-15.76v-7.88m0-15.76v-7.88m0-15.75v-7.88m0-15.77v-7.88m0-15.76v-7.88m0-15.76v-7.88m0-15.76v-7.88m0-15.76v-7.87m0-15.75v-7.88m0-15.76v-7.87m0-15.75v-7.88m0-15.76V126l.33-3.9m5.9-14.35l.18-.3 3.43-3.66 1.97-1.52m14.3-5.93l1.75-.27L70 96h4m16 0h8m16 0h8m16 0h8m16 0h8m16 0h8m16 0h8m16 0h8m16 0h8m16 0h8m16 0h8m16 0h8m16 0h8m16 0h8m16 0h8m16 0h8m16 0h8m16 0h8m16 0h8m16 0h8m16 0h8m16 0h8m16 0h8m16 0h8m16 0h8m16 0h8m16 0h8m16 0h8m16 0h8m16 0h8m16 0h8m16 0h8m16 0h8m16 0h8m16 0h8m16 0h8m16 0h8m16 0h8m16 0h8m16 0h8m16 0h8m16 0h8m16 0h8m16 0h8m16 0h8m16 0h8m16 0h8m16 0h8m16 0h8m16 0h8m16 0h8m16 0h8m16 0h8m16 0h8m16 0h8m16 0h8m16 0h8m16 0h8m16 0h8m16 0h8m16 0h4l3.9.33" stroke="#000" stroke-width="4" fill="none"/><path d="M60 101c0-2.76 2.24-5 5-5h370c2.76 0 5 2.24 5 5v75.33c0 2.76-2.24 5-5 5H65c-2.76 0-5-2.24-5-5z" fill="none"/><use xlink:href="#a" transform="matrix(1,0,0,1,60,96) translate(15.851851851851848 53.41666666666667)"/><path d="M80 197c0-2.76 2.24-5 5-5h272c2.76 0 5 2.24 5 5v166c0 2.76-2.24 5-5 5H85c-2.76 0-5-2.24-5-5z" stroke="#000" stroke-width="5" fill="#fff"/><use xlink:href="#b" transform="matrix(1,0,0,1,80,192) translate(14.961790123456788 96.38888888888889)"/><path d="M210 376.5V435c0 2.76 2.24 5 5 5h80c2.76 0 5 2.24 5 5v23.5" fill="none"/><path d="M210 376.5v4.4m0 5.84v8.78m0 5.85v8.77m0 5.85v8.76m0 5.85v4.4l.96 2.95 2.46 1.8 1.58.25h4.8m6.4 0h9.6m6.4 0h9.6m6.4 0h9.6m6.4 0h9.6m6.4 0h4.8l2.95.96 1.8 2.46.25 1.58v3.52m0 4.7v7.05m0 4.7v3.53" stroke="#000" stroke-width="3" fill="none"/><path d="M211.5 376.5h-3v-.74l1.5.24 1.5-.24zM301.5 471.5h-3v-3h3z"/><path d="M220 366c0 5.52-4.48 10-10 10s-10-4.48-10-10 4.48-10 10-10 10 4.48 10 10z" stroke="#000"/><path d="M340 236c0-2.76 2.24-5 5-5h230c2.76 0 5 2.24 5 5v50c0 2.76-2.24 5-5 5H345c-2.76 0-5-2.24-5-5z" fill="none"/><use xlink:href="#c" transform="matrix(1,0,0,1,340,231) translate(47.15833333333334 36.08888888888889)"/><path d="M200 477c0-2.76 2.24-5 5-5h190c2.76 0 5 2.24 5 5v166c0 2.76-2.24 5-5 5H205c-2.76 0-5-2.24-5-5z" stroke="#000" stroke-width="7" fill="#fff"/><use xlink:href="#d" transform="matrix(1,0,0,1,200,472) translate(14.579074074074066 96.38888888888889)"/><path d="M560 197c0-2.76 2.24-5 5-5h190c2.76 0 5 2.24 5 5v166c0 2.76-2.24 5-5 5H565c-2.76 0-5-2.24-5-5z" stroke="#000" stroke-width="5" fill="#fff"/><use xlink:href="#e" transform="matrix(1,0,0,1,560,192) translate(23.177839506172838 96.38888888888889)"/><path d="M364.5 280h169.9" stroke="#333" stroke-width="5" fill="none"/><path d="M364.5 282.5H362v-5h2.5zM549.4 280l-14.26 4.64v-9.28z" fill="#333"/><path d="M557.5 280l-24.86 8.08v-16.16zm-19.86 1.2l3.68-1.2-3.68-1.2z" fill="#333"/><path d="M930 197c0-2.76 2.24-5 5-5h190c2.76 0 5 2.24 5 5v166c0 2.76-2.24 5-5 5H935c-2.76 0-5-2.24-5-5z" stroke="#000" stroke-width="5" fill="#fff"/><use xlink:href="#f" transform="matrix(1,0,0,1,930,192) translate(25.229444444444447 99.5)"/><path d="M1300 197c0-2.76 2.24-5 5-5h190c2.76 0 5 2.24 5 5v166c0 2.76-2.24 5-5 5h-190c-2.76 0-5-2.24-5-5z" stroke="#000" stroke-width="5" fill="#fff"/><use xlink:href="#g" transform="matrix(1,0,0,1,1300,192) translate(17.128456790123444 96.38888888888889)"/><use xlink:href="#h" transform="matrix(1,0,0,1,1300,192) translate(115.64697530864197 96.38888888888889)"/><path d="M1132.5 280h141.9" stroke="#000" stroke-width="5" fill="none"/><path d="M1132.5 282.5h-2.5v-5h2.5zM1289.4 280l-14.26 4.64v-9.28z"/><path d="M1297.5 280l-24.86 8.08v-16.16zm-19.86 1.2l3.68-1.2-3.68-1.2z"/><path d="M762.5 280h141.9" stroke="#000" stroke-width="5" fill="none"/><path d="M762.5 282.5H760v-5h2.5zM919.4 280l-14.26 4.64v-9.28z"/><path d="M927.5 280l-24.86 8.08v-16.16zm-19.86 1.2l3.68-1.2-3.68-1.2z"/><defs><path d="M199 0l-22-63H83L61 0H9l90-248h61L250 0h-51zm-33-102l-36-108c-10 38-24 72-36 108h72" id="i"/><path d="M85 4C-2 5 27-109 22-190h50c7 57-23 150 33 157 60-5 35-97 40-157h50l1 190h-47c-2-12 1-28-3-38-12 25-28 42-61 42" id="j"/><path d="M88-194c31-1 46 15 58 34l-1-101h50l1 261h-48c-2-10 0-23-3-31C134-8 116 4 84 4 32 4 16-41 15-95c0-56 19-97 73-99zm17 164c33 0 40-30 41-66 1-37-9-64-41-64s-38 30-39 65c0 43 13 65 39 65" id="k"/><path d="M25-224v-37h50v37H25zM25 0v-190h50V0H25" id="l"/><path d="M110-194c64 0 96 36 96 99 0 64-35 99-97 99-61 0-95-36-95-99 0-62 34-99 96-99zm-1 164c35 0 45-28 45-65 0-40-10-65-43-65-34 0-45 26-45 65 0 36 10 65 43 65" id="m"/><path d="M67-125c0 53 21 87 73 88 37 1 54-22 65-47l45 17C233-25 199 4 140 4 58 4 20-42 15-125 8-235 124-281 211-232c18 10 29 29 36 50l-46 12c-8-25-30-41-62-41-52 0-71 34-72 86" id="n"/><path d="M135-194c87-1 58 113 63 194h-50c-7-57 23-157-34-157-59 0-34 97-39 157H25l-1-190h47c2 12-1 28 3 38 12-26 28-41 61-42" id="o"/><path d="M115-3C79 11 28 4 28-45v-112H4v-33h27l15-45h31v45h36v33H77v99c-1 23 16 31 38 25v30" id="p"/><path d="M185-48c-13 30-37 53-82 52C43 2 14-33 14-96s30-98 90-98c62 0 83 45 84 108H66c0 31 8 55 39 56 18 0 30-7 34-22zm-45-69c5-46-57-63-70-21-2 6-4 13-4 21h74" id="q"/><path d="M144 0l-44-69L55 0H2l70-98-66-92h53l41 62 40-62h54l-67 91 71 99h-54" id="r"/><g id="a"><use transform="matrix(0.14814814814814817,0,0,0.14814814814814817,0,0)" xlink:href="#i"/><use transform="matrix(0.14814814814814817,0,0,0.14814814814814817,38.370370370370374,0)" xlink:href="#j"/><use transform="matrix(0.14814814814814817,0,0,0.14814814814814817,70.81481481481482,0)" xlink:href="#k"/><use transform="matrix(0.14814814814814817,0,0,0.14814814814814817,103.25925925925927,0)" xlink:href="#l"/><use transform="matrix(0.14814814814814817,0,0,0.14814814814814817,118.07407407407408,0)" xlink:href="#m"/><use transform="matrix(0.14814814814814817,0,0,0.14814814814814817,150.51851851851853,0)" xlink:href="#n"/><use transform="matrix(0.14814814814814817,0,0,0.14814814814814817,188.8888888888889,0)" xlink:href="#m"/><use transform="matrix(0.14814814814814817,0,0,0.14814814814814817,221.33333333333337,0)" xlink:href="#o"/><use transform="matrix(0.14814814814814817,0,0,0.14814814814814817,253.77777777777786,0)" xlink:href="#p"/><use transform="matrix(0.14814814814814817,0,0,0.14814814814814817,271.40740740740745,0)" xlink:href="#q"/><use transform="matrix(0.14814814814814817,0,0,0.14814814814814817,301.03703703703707,0)" xlink:href="#r"/><use transform="matrix(0.14814814814814817,0,0,0.14814814814814817,330.6666666666667,0)" xlink:href="#p"/></g><path d="M205 0l-28-72H64L36 0H1l101-248h38L239 0h-34zm-38-99l-47-123c-12 45-31 82-46 123h93" id="s"/><path d="M84 4C-5 8 30-112 23-190h32v120c0 31 7 50 39 49 72-2 45-101 50-169h31l1 190h-30c-1-10 1-25-2-33-11 22-28 36-60 37" id="t"/><path d="M85-194c31 0 48 13 60 33l-1-100h32l1 261h-30c-2-10 0-23-3-31C134-8 116 4 85 4 32 4 16-35 15-94c0-66 23-100 70-100zm9 24c-40 0-46 34-46 75 0 40 6 74 45 74 42 0 51-32 51-76 0-42-9-74-50-73" id="u"/><path d="M24-231v-30h32v30H24zM24 0v-190h32V0H24" id="v"/><path d="M100-194c62-1 85 37 85 99 1 63-27 99-86 99S16-35 15-95c0-66 28-99 85-99zM99-20c44 1 53-31 53-75 0-43-8-75-51-75s-53 32-53 75 10 74 51 75" id="w"/><path d="M185-189c-5-48-123-54-124 2 14 75 158 14 163 119 3 78-121 87-175 55-17-10-28-26-33-46l33-7c5 56 141 63 141-1 0-78-155-14-162-118-5-82 145-84 179-34 5 7 8 16 11 25" id="x"/><path d="M114-163C36-179 61-72 57 0H25l-1-190h30c1 12-1 29 2 39 6-27 23-49 58-41v29" id="y"/><path d="M96-169c-40 0-48 33-48 73s9 75 48 75c24 0 41-14 43-38l32 2c-6 37-31 61-74 61-59 0-76-41-82-99-10-93 101-131 147-64 4 7 5 14 7 22l-32 3c-4-21-16-35-41-35" id="z"/><path d="M100-194c63 0 86 42 84 106H49c0 40 14 67 53 68 26 1 43-12 49-29l28 8c-11 28-37 45-77 45C44 4 14-33 15-96c1-61 26-98 85-98zm52 81c6-60-76-77-97-28-3 7-6 17-6 28h103" id="A"/><path d="M190 0L58-211 59 0H30v-248h39L202-35l-2-213h31V0h-41" id="B"/><g id="b"><use transform="matrix(0.08641975308641976,0,0,0.08641975308641976,0,0)" xlink:href="#s"/><use transform="matrix(0.08641975308641976,0,0,0.08641975308641976,20.740740740740744,0)" xlink:href="#t"/><use transform="matrix(0.08641975308641976,0,0,0.08641975308641976,38.0246913580247,0)" xlink:href="#u"/><use transform="matrix(0.08641975308641976,0,0,0.08641975308641976,55.308641975308646,0)" xlink:href="#v"/><use transform="matrix(0.08641975308641976,0,0,0.08641975308641976,62.13580246913581,0)" xlink:href="#w"/><use transform="matrix(0.08641975308641976,0,0,0.08641975308641976,79.41975308641976,0)" xlink:href="#x"/><use transform="matrix(0.08641975308641976,0,0,0.08641975308641976,100.16049382716051,0)" xlink:href="#w"/><use transform="matrix(0.08641975308641976,0,0,0.08641975308641976,117.44444444444446,0)" xlink:href="#t"/><use transform="matrix(0.08641975308641976,0,0,0.08641975308641976,134.7283950617284,0)" xlink:href="#y"/><use transform="matrix(0.08641975308641976,0,0,0.08641975308641976,145.01234567901236,0)" xlink:href="#z"/><use transform="matrix(0.08641975308641976,0,0,0.08641975308641976,160.5679012345679,0)" xlink:href="#A"/><use transform="matrix(0.08641975308641976,0,0,0.08641975308641976,177.85185185185182,0)" xlink:href="#B"/><use transform="matrix(0.08641975308641976,0,0,0.08641975308641976,200.23456790123456,0)" xlink:href="#w"/><use transform="matrix(0.08641975308641976,0,0,0.08641975308641976,217.5185185185185,0)" xlink:href="#u"/><use transform="matrix(0.08641975308641976,0,0,0.08641975308641976,234.80246913580245,0)" xlink:href="#A"/></g><path d="M139 13c-36 0-66-28-66-69s30-71 66-71 66 30 66 71-30 69-66 69" id="C"/><path d="M306 13C162 13 51-91 51-271c0-181 123-286 262-286 71 0 120 30 159 64l-47 61c-32-29-65-49-109-49-98 0-170 85-170 210S214-63 314-63c50 0 94-23 128-54l39 61c-48 44-110 69-175 69" id="D"/><path d="M303 13C170 13 51-91 51-271c0-181 119-286 252-286s252 105 252 286C555-91 436 13 303 13zm0-76c94 0 158-83 158-208s-64-210-158-210-157 85-157 210S209-63 303-63" id="E"/><path d="M92 0v-543h75l8 78h3c52-51 108-92 182-92 114 0 166 74 166 213V0h-91v-332c0-102-31-145-103-145-56 0-94 28-149 83V0H92" id="F"/><path d="M311 13C167 13 51-92 51-271c0-176 119-286 245-286 154-3 234 132 212 307H142c6 116 77 190 180 190 53 0 96-16 136-43l33 60c-48 31-106 56-180 56zM141-315h291c0-110-50-169-135-169-77 0-145 62-156 169" id="G"/><path d="M263 13c-116 0-155-72-155-181v-301H27v-69l85-5 11-152h76v152h147v74H199v303c0 67 21 105 84 105 19 0 44-7 62-14l18 68c-31 10-67 20-100 20" id="H"/><path d="M239 197C147 47 92-114 92-311c0-196 55-358 147-507l57 26c-171 284-171 678 0 962" id="I"/><path d="M99 197l-56-27c171-284 171-678 0-962l56-26c93 149 148 311 148 507 0 197-55 358-148 508" id="J"/><g id="c"><use transform="matrix(0.031111111111111114,0,0,0.031111111111111114,0,0)" xlink:href="#C"/><use transform="matrix(0.031111111111111114,0,0,0.031111111111111114,8.244444444444445,0)" xlink:href="#D"/><use transform="matrix(0.031111111111111114,0,0,0.031111111111111114,23.333333333333336,0)" xlink:href="#E"/><use transform="matrix(0.031111111111111114,0,0,0.031111111111111114,42.18666666666667,0)" xlink:href="#F"/><use transform="matrix(0.031111111111111114,0,0,0.031111111111111114,61.19555555555556,0)" xlink:href="#F"/><use transform="matrix(0.031111111111111114,0,0,0.031111111111111114,80.20444444444445,0)" xlink:href="#G"/><use transform="matrix(0.031111111111111114,0,0,0.031111111111111114,97.44,0)" xlink:href="#D"/><use transform="matrix(0.031111111111111114,0,0,0.031111111111111114,112.93333333333334,0)" xlink:href="#H"/><use transform="matrix(0.031111111111111114,0,0,0.031111111111111114,124.66222222222223,0)" xlink:href="#I"/><use transform="matrix(0.031111111111111114,0,0,0.031111111111111114,135.17777777777778,0)" xlink:href="#J"/></g><path d="M30-248c87 1 191-15 191 75 0 78-77 80-158 76V0H30v-248zm33 125c57 0 124 11 124-50 0-59-68-47-124-48v98" id="K"/><path d="M141-36C126-15 110 5 73 4 37 3 15-17 15-53c-1-64 63-63 125-63 3-35-9-54-41-54-24 1-41 7-42 31l-33-3c5-37 33-52 76-52 45 0 72 20 72 64v82c-1 20 7 32 28 27v20c-31 9-61-2-59-35zM48-53c0 20 12 33 32 33 41-3 63-29 60-74-43 2-92-5-92 41" id="L"/><path d="M210-169c-67 3-38 105-44 169h-31v-121c0-29-5-50-35-48C34-165 62-65 56 0H25l-1-190h30c1 10-1 24 2 32 10-44 99-50 107 0 11-21 27-35 58-36 85-2 47 119 55 194h-31v-121c0-29-5-49-35-48" id="M"/><g id="d"><use transform="matrix(0.08641975308641976,0,0,0.08641975308641976,0,0)" xlink:href="#s"/><use transform="matrix(0.08641975308641976,0,0,0.08641975308641976,20.740740740740744,0)" xlink:href="#t"/><use transform="matrix(0.08641975308641976,0,0,0.08641975308641976,38.0246913580247,0)" xlink:href="#u"/><use transform="matrix(0.08641975308641976,0,0,0.08641975308641976,55.308641975308646,0)" xlink:href="#v"/><use transform="matrix(0.08641975308641976,0,0,0.08641975308641976,62.13580246913581,0)" xlink:href="#w"/><use transform="matrix(0.08641975308641976,0,0,0.08641975308641976,79.41975308641976,0)" xlink:href="#K"/><use transform="matrix(0.08641975308641976,0,0,0.08641975308641976,100.16049382716051,0)" xlink:href="#L"/><use transform="matrix(0.08641975308641976,0,0,0.08641975308641976,117.44444444444446,0)" xlink:href="#y"/><use transform="matrix(0.08641975308641976,0,0,0.08641975308641976,127.7283950617284,0)" xlink:href="#L"/><use transform="matrix(0.08641975308641976,0,0,0.08641975308641976,145.01234567901236,0)" xlink:href="#M"/></g><g id="e"><use transform="matrix(0.08641975308641976,0,0,0.08641975308641976,0,0)" xlink:href="#s"/><use transform="matrix(0.08641975308641976,0,0,0.08641975308641976,20.740740740740744,0)" xlink:href="#t"/><use transform="matrix(0.08641975308641976,0,0,0.08641975308641976,38.0246913580247,0)" xlink:href="#u"/><use transform="matrix(0.08641975308641976,0,0,0.08641975308641976,55.308641975308646,0)" xlink:href="#v"/><use transform="matrix(0.08641975308641976,0,0,0.08641975308641976,62.13580246913581,0)" xlink:href="#w"/><use transform="matrix(0.08641975308641976,0,0,0.08641975308641976,79.41975308641976,0)" xlink:href="#B"/><use transform="matrix(0.08641975308641976,0,0,0.08641975308641976,101.80246913580248,0)" xlink:href="#w"/><use transform="matrix(0.08641975308641976,0,0,0.08641975308641976,119.08641975308643,0)" xlink:href="#u"/><use transform="matrix(0.08641975308641976,0,0,0.08641975308641976,136.37037037037038,0)" xlink:href="#A"/></g><path d="M276-509c50 0 69 4 105 17v-208h80v528c1 67-1 118 10 174h-54l-20-71h-4c-25 44-78 82-147 81C97 8 50-86 49-248c-1-159 77-260 227-261zM132-248c1 104 26 190 127 190 75 0 108-41 122-107v-248c-27-20-53-26-102-26-105 0-148 72-147 191" id="N"/><path d="M293-58c43 0 98-19 119-40l30 58C404-9 338 12 270 12 112 10 51-92 49-250c-1-159 70-258 220-262 155-4 211 110 184 270H132c0 116 45 184 161 184zm88-247c1-92-30-137-111-137-89 0-129 46-137 137h248" id="O"/><path d="M63-93c59 36 240 71 234-43-5-91-121-82-179-124-34-24-62-54-62-113 0-97 59-138 155-139 66-1 112 13 154 32l-19 66c-52-26-221-63-210 39 9 83 124 74 178 118 33 27 64 57 63 118-3 103-68 149-174 151C134 13 81-3 39-25" id="P"/><path d="M200 12C109 10 89-39 89-138v-292H11v-70h78v-99l80-23v122h136v70H169v277c1 59 6 93 57 95 38 1 55-9 84-20l18 61c-35 17-77 30-128 29" id="Q"/><path d="M94-500h80V0H94v-500zm38-99c-31 0-55-23-55-53s24-56 55-56 58 26 58 56-28 53-58 53" id="R"/><path d="M313-512c130 0 165 79 165 210V0h-80v-285c-2-94-16-155-105-157-72-1-118 46-136 100V0H77v-500h56l15 61h4c32-42 86-73 161-73" id="S"/><path d="M422-354c0 120-19 253 8 356h-59l-21-70h-5C315-22 265 8 189 8 98 8 39-43 39-134c0-147 152-157 302-151 10-93 1-159-99-153-57 4-110 14-148 35l-25-60c48-30 118-45 194-45 108-1 159 51 159 154zM122-142c-2 47 40 81 89 80 67-1 109-32 130-79v-83c-95-3-214-10-219 82" id="T"/><path d="M268 12C112 12 51-93 49-250c-1-158 69-262 219-262 156 0 217 105 219 262 1 158-69 262-219 262zm136-262c0-105-32-190-136-192-91-2-136 63-136 192 0 105 33 189 136 192 91 2 136-63 136-192" id="U"/><g id="f"><use transform="matrix(0.031111111111111114,0,0,0.031111111111111114,0,0)" xlink:href="#N"/><use transform="matrix(0.031111111111111114,0,0,0.031111111111111114,16.73777777777778,0)" xlink:href="#O"/><use transform="matrix(0.031111111111111114,0,0,0.031111111111111114,32.54222222222222,0)" xlink:href="#P"/><use transform="matrix(0.031111111111111114,0,0,0.031111111111111114,45.64,0)" xlink:href="#Q"/><use transform="matrix(0.031111111111111114,0,0,0.031111111111111114,56.18666666666667,0)" xlink:href="#R"/><use transform="matrix(0.031111111111111114,0,0,0.031111111111111114,64.52444444444444,0)" xlink:href="#S"/><use transform="matrix(0.031111111111111114,0,0,0.031111111111111114,81.54222222222222,0)" xlink:href="#T"/><use transform="matrix(0.031111111111111114,0,0,0.031111111111111114,96.97333333333333,0)" xlink:href="#Q"/><use transform="matrix(0.031111111111111114,0,0,0.031111111111111114,107.52,0)" xlink:href="#R"/><use transform="matrix(0.031111111111111114,0,0,0.031111111111111114,115.85777777777777,0)" xlink:href="#U"/><use transform="matrix(0.031111111111111114,0,0,0.031111111111111114,132.53333333333333,0)" xlink:href="#S"/></g><path d="M117-194c89-4 53 116 60 194h-32v-121c0-31-8-49-39-48C34-167 62-67 57 0H25l-1-190h30c1 10-1 24 2 32 11-22 29-35 61-36" id="V"/><g id="g"><use transform="matrix(0.08641975308641976,0,0,0.08641975308641976,0,0)" xlink:href="#x"/><use transform="matrix(0.08641975308641976,0,0,0.08641975308641976,20.740740740740744,0)" xlink:href="#w"/><use transform="matrix(0.08641975308641976,0,0,0.08641975308641976,38.0246913580247,0)" xlink:href="#t"/><use transform="matrix(0.08641975308641976,0,0,0.08641975308641976,55.308641975308646,0)" xlink:href="#V"/><use transform="matrix(0.08641975308641976,0,0,0.08641975308641976,72.5925925925926,0)" xlink:href="#u"/></g><path d="M212-179c-10-28-35-45-73-45-59 0-87 40-87 99 0 60 29 101 89 101 43 0 62-24 78-52l27 14C228-24 195 4 139 4 59 4 22-46 18-125c-6-104 99-153 187-111 19 9 31 26 39 46" id="W"/><g id="h"><use transform="matrix(0.08641975308641976,0,0,0.08641975308641976,0,0)" xlink:href="#W"/><use transform="matrix(0.08641975308641976,0,0,0.08641975308641976,22.38271604938272,0)" xlink:href="#L"/><use transform="matrix(0.08641975308641976,0,0,0.08641975308641976,39.66666666666667,0)" xlink:href="#y"/><use transform="matrix(0.08641975308641976,0,0,0.08641975308641976,49.95061728395062,0)" xlink:href="#u"/></g></defs></g></svg>