<svg xmlns="http://www.w3.org/2000/svg" xmlns:xlink="http://www.w3.org/1999/xlink" xmlns:lucid="lucid" width="1347" height="544.67"><g transform="translate(66.99999999999996 -28.33333333333333)" lucid:page-tab-id="0_0"><path d="M80 480h420.15" stroke="#000" stroke-width="3" fill="none"/><path d="M515.15 480l-14.27 4.64v-9.28z" stroke="#000" stroke-width="3"/><path d="M120 520v-35c-2.76 0-5-2.24-5-5s2.24-5 5-5V99.85" stroke="#000" stroke-width="3" fill="none"/><path d="M120 84.85l4.64 14.27h-9.28z" stroke="#000" stroke-width="3"/><path d="M120 320l140-160M380 320h135.2M260 160l120 160" stroke="#000" stroke-width="3" fill="none"/><path d="M539.5 466.83c0-2.76 2.24-5 5-5h32c2.76 0 5 2.24 5 5v19.34c0 2.76-2.24 5-5 5h-32c-2.76 0-5-2.24-5-5zM-47 305.33c0-2.76 2.24-5 5-5h230c2.76 0 5 2.24 5 5v19.34c0 2.76-2.24 5-5 5H-42c-2.76 0-5-2.24-5-5z" fill="none"/><use xlink:href="#a" transform="matrix(1,0,0,1,-46.99999999999996,300.3333333333333) translate(76.47104938271605 19.555555555555557)"/><path d="M35 131c0-2.76 2.24-5 5-5h83c2.76 0 5 2.24 5 5v50c0 2.76-2.24 5-5 5H40c-2.76 0-5-2.24-5-5z" fill="none"/><use xlink:href="#b" transform="matrix(1,0,0,1,35,126) translate(17.98148148148148 34.55555555555556)"/><path d="M120 160h140" fill="none"/><path d="M121.5 160c0 .83-.67 1.5-1.5 1.5s-1.5-.67-1.5-1.5.67-1.5 1.5-1.5 1.5.67 1.5 1.5zm11.67 0c0 .83-.67 1.5-1.5 1.5s-1.5-.67-1.5-1.5.67-1.5 1.5-1.5 1.5.67 1.5 1.5zm11.66 0c0 .83-.67 1.5-1.5 1.5s-1.5-.67-1.5-1.5.67-1.5 1.5-1.5 1.5.67 1.5 1.5zm11.67 0c0 .83-.67 1.5-1.5 1.5s-1.5-.67-1.5-1.5.67-1.5 1.5-1.5 1.5.67 1.5 1.5zm11.67 0c0 .83-.68 1.5-1.5 1.5-.83 0-1.5-.67-1.5-1.5s.67-1.5 1.5-1.5c.82 0 1.5.67 1.5 1.5zm11.66 0c0 .83-.67 1.5-1.5 1.5s-1.5-.67-1.5-1.5.67-1.5 1.5-1.5 1.5.67 1.5 1.5zm11.67 0c0 .83-.67 1.5-1.5 1.5s-1.5-.67-1.5-1.5.67-1.5 1.5-1.5 1.5.67 1.5 1.5zm11.67 0c0 .83-.68 1.5-1.5 1.5-.83 0-1.5-.67-1.5-1.5s.67-1.5 1.5-1.5c.82 0 1.5.67 1.5 1.5zm11.66 0c0 .83-.67 1.5-1.5 1.5s-1.5-.67-1.5-1.5.67-1.5 1.5-1.5 1.5.67 1.5 1.5zm11.67 0c0 .83-.67 1.5-1.5 1.5s-1.5-.67-1.5-1.5.67-1.5 1.5-1.5 1.5.67 1.5 1.5zm11.67 0c0 .83-.68 1.5-1.5 1.5-.83 0-1.5-.67-1.5-1.5s.67-1.5 1.5-1.5c.82 0 1.5.67 1.5 1.5zm11.66 0c0 .83-.67 1.5-1.5 1.5s-1.5-.67-1.5-1.5.67-1.5 1.5-1.5 1.5.67 1.5 1.5zm11.67 0c0 .83-.67 1.5-1.5 1.5s-1.5-.67-1.5-1.5.67-1.5 1.5-1.5 1.5.67 1.5 1.5z"/><path d="M260 320V185.53" stroke="#666" fill="none"/><path d="M260 170.53l4.64 14.27h-9.28z" stroke="#666" fill="#666"/><path d="M225 400c-2.76 0-5-2.24-5-5V165c0-2.76 2.24-5 5-5h27.33c2.76 0 5 2.24 5 5v230c0 2.76-2.24 5-5 5z" fill="none"/><use xlink:href="#c" transform="matrix(6.123233995736766e-17,-1,1,6.123233995736766e-17,219.99999999999997,400.00000000000006) translate(68.78277777777778 24.888888888888893)"/><path d="M144 486.13c0-2.76 2.24-5 5-5h70c2.76 0 5 2.24 5 5v27.34c0 2.76-2.24 5-5 5h-70c-2.76 0-5-2.24-5-5zM261.75 486.13c0-2.76 2.24-5 5-5h70c2.76 0 5 2.24 5 5v27.34c0 2.76-2.24 5-5 5h-70c-2.76 0-5-2.24-5-5zM100 53.33c0-2.76 2.24-5 5-5h32c2.76 0 5 2.24 5 5v19.34c0 2.76-2.24 5-5 5h-32c-2.76 0-5-2.24-5-5z" fill="none"/><path d="M741 480h479.15" stroke="#000" stroke-width="3" fill="none"/><path d="M1235.15 480l-14.27 4.64v-9.28z" stroke="#000" stroke-width="3"/><path d="M765 520v-35c-2.76 0-5-2.24-5-5s2.24-5 5-5V99.85" stroke="#000" stroke-width="3" fill="none"/><path d="M765 84.85l4.63 14.27h-9.27z" stroke="#000" stroke-width="3"/><path d="M1170 466.33c0-2.76 2.24-5 5-5h30c2.76 0 5 2.24 5 5v19.34c0 2.76-2.24 5-5 5h-30c-2.76 0-5-2.24-5-5zM781 487.13c0-2.76 2.24-5 5-5h70c2.76 0 5 2.24 5 5v27.34c0 2.76-2.24 5-5 5h-70c-2.76 0-5-2.24-5-5zM905.5 485.33c0-2.76 2.24-5 5-5h70c2.76 0 5 2.24 5 5v27.34c0 2.76-2.24 5-5 5h-70c-2.76 0-5-2.24-5-5z" fill="none"/><path d="M765 459.7L881 160M881 160l80 80M961 240l79-1M1040 239l163.52 241" stroke="#000" stroke-width="3" fill="none"/><path d="M1040 487.33c0-2.76 2.24-5 5-5h70c2.76 0 5 2.24 5 5v27.34c0 2.76-2.24 5-5 5h-70c-2.76 0-5-2.24-5-5zM669 224c0-2.76 2.24-5 5-5h70c2.76 0 5 2.24 5 5v32c0 2.76-2.24 5-5 5h-70c-2.76 0-5-2.24-5-5zM340 65c0-2.76 2.24-5 5-5h250c2.76 0 5 2.24 5 5v75.33c0 2.76-2.24 5-5 5H345c-2.76 0-5-2.24-5-5z" fill="none"/><use xlink:href="#d" transform="matrix(1,0,0,1,340,60) translate(70.88888888888889 49.94444444444444)"/><path d="M1000 65c0-2.76 2.24-5 5-5h250c2.76 0 5 2.24 5 5v75.33c0 2.76-2.24 5-5 5h-250c-2.76 0-5-2.24-5-5z" fill="none"/><use xlink:href="#e" transform="matrix(1,0,0,1,1000,60) translate(79.77777777777777 49.94444444444444)"/><path d="M743 53.33c0-2.76 2.24-5 5-5h32c2.76 0 5 2.24 5 5v19.34c0 2.76-2.24 5-5 5h-32c-2.76 0-5-2.24-5-5zM708 130c0-2.76 2.24-5 5-5h29c2.76 0 5 2.24 5 5v50c0 2.76-2.24 5-5 5h-29c-2.76 0-5-2.24-5-5zM1080 485c0-2.76 2.24-5 5-5h83c2.76 0 5 2.24 5 5v50c0 2.76-2.24 5-5 5h-83c-2.76 0-5-2.24-5-5z" fill="none"/><use xlink:href="#f" transform="matrix(1,0,0,1,1080,480) translate(0.36111111111110006 34.55555555555556)"/><path d="M971 196c0-2.76 2.24-5 5-5h83c2.76 0 5 2.24 5 5v50c0 2.76-2.24 5-5 5h-83c-2.76 0-5-2.24-5-5z" fill="none"/><use xlink:href="#a" transform="matrix(1,0,0,1,971,191) translate(2.4660493827160437 34.55555555555556)"/><path d="M850 228.87c0-2.76 2.24-5 5-5h83c2.76 0 5 2.24 5 5v50c0 2.76-2.24 5-5 5h-83c-2.76 0-5-2.24-5-5z" fill="none"/><use xlink:href="#g" transform="matrix(1,0,0,1,850,223.86666666666667) translate(10.54629629629629 34.55555555555556)"/><path d="M765 498c0-2.76 2.24-5 5-5h83c2.76 0 5 2.24 5 5v50c0 2.76-2.24 5-5 5h-83c-2.76 0-5-2.24-5-5z" fill="none"/><use xlink:href="#h" transform="matrix(1,0,0,1,765,493) translate(9.261172839506168 19.555555555555557)"/><use xlink:href="#i" transform="matrix(1,0,0,1,765,493) translate(46.504999999999995 48.88888888888889)"/><defs><path d="M169-182c-1-43-94-46-97-3 18 66 151 10 154 114 3 95-165 93-204 36-6-8-10-19-12-30l50-8c3 46 112 56 116 5-17-69-150-10-154-114-4-87 153-88 188-35 5 8 8 18 10 28" id="j"/><path d="M85 4C-2 5 27-109 22-190h50c7 57-23 150 33 157 60-5 35-97 40-157h50l1 190h-47c-2-12 1-28-3-38-12 25-28 42-61 42" id="k"/><path d="M137-138c1-29-70-34-71-4 15 46 118 7 119 86 1 83-164 76-172 9l43-7c4 19 20 25 44 25 33 8 57-30 24-41C81-84 22-81 20-136c-2-80 154-74 161-7" id="l"/><path d="M115-3C79 11 28 4 28-45v-112H4v-33h27l15-45h31v45h36v33H77v99c-1 23 16 31 38 25v30" id="m"/><path d="M133-34C117-15 103 5 69 4 32 3 11-16 11-54c-1-60 55-63 116-61 1-26-3-47-28-47-18 1-26 9-28 27l-52-2c7-38 36-58 82-57s74 22 75 68l1 82c-1 14 12 18 25 15v27c-30 8-71 5-69-32zm-48 3c29 0 43-24 42-57-32 0-66-3-65 30 0 17 8 27 23 27" id="n"/><path d="M25-224v-37h50v37H25zM25 0v-190h50V0H25" id="o"/><path d="M135-194c87-1 58 113 63 194h-50c-7-57 23-157-34-157-59 0-34 97-39 157H25l-1-190h47c2 12-1 28 3 38 12-26 28-41 61-42" id="p"/><g id="a"><use transform="matrix(0.06790123456790124,0,0,0.06790123456790124,0,0)" xlink:href="#j"/><use transform="matrix(0.06790123456790124,0,0,0.06790123456790124,16.296296296296298,0)" xlink:href="#k"/><use transform="matrix(0.06790123456790124,0,0,0.06790123456790124,31.16666666666667,0)" xlink:href="#l"/><use transform="matrix(0.06790123456790124,0,0,0.06790123456790124,44.74691358024692,0)" xlink:href="#m"/><use transform="matrix(0.06790123456790124,0,0,0.06790123456790124,52.827160493827165,0)" xlink:href="#n"/><use transform="matrix(0.06790123456790124,0,0,0.06790123456790124,66.40740740740742,0)" xlink:href="#o"/><use transform="matrix(0.06790123456790124,0,0,0.06790123456790124,73.19753086419755,0)" xlink:href="#p"/></g><path d="M24-248c93 1 206-16 204 79-1 75-69 88-152 82V0H24v-248zm52 121c47 0 100 7 100-41 0-47-54-39-100-39v80" id="q"/><path d="M185-48c-13 30-37 53-82 52C43 2 14-33 14-96s30-98 90-98c62 0 83 45 84 108H66c0 31 8 55 39 56 18 0 30-7 34-22zm-45-69c5-46-57-63-70-21-2 6-4 13-4 21h74" id="r"/><path d="M147 0L96-86 75-71V0H25v-261h50v150l67-79h53l-66 74L201 0h-54" id="s"/><g id="b"><use transform="matrix(0.06790123456790124,0,0,0.06790123456790124,0,0)" xlink:href="#q"/><use transform="matrix(0.06790123456790124,0,0,0.06790123456790124,16.296296296296298,0)" xlink:href="#r"/><use transform="matrix(0.06790123456790124,0,0,0.06790123456790124,29.876543209876544,0)" xlink:href="#n"/><use transform="matrix(0.06790123456790124,0,0,0.06790123456790124,43.45679012345679,0)" xlink:href="#s"/></g><path d="M199 0l-22-63H83L61 0H9l90-248h61L250 0h-51zm-33-102l-36-108c-10 38-24 72-36 108h72" id="t"/><path d="M190-63c-7 42-38 67-86 67-59 0-84-38-90-98-12-110 154-137 174-36l-49 2c-2-19-15-32-35-32-30 0-35 28-38 64-6 74 65 87 74 30" id="u"/><g id="c"><use transform="matrix(0.08641975308641976,0,0,0.08641975308641976,0,0)" xlink:href="#t"/><use transform="matrix(0.08641975308641976,0,0,0.08641975308641976,22.38271604938272,0)" xlink:href="#u"/><use transform="matrix(0.08641975308641976,0,0,0.08641975308641976,39.66666666666667,0)" xlink:href="#u"/><use transform="matrix(0.08641975308641976,0,0,0.08641975308641976,56.95061728395062,0)" xlink:href="#r"/><use transform="matrix(0.08641975308641976,0,0,0.08641975308641976,74.23456790123457,0)" xlink:href="#p"/><use transform="matrix(0.08641975308641976,0,0,0.08641975308641976,93.16049382716048,0)" xlink:href="#m"/></g><g id="d"><use transform="matrix(0.09876543209876544,0,0,0.09876543209876544,0,0)" xlink:href="#t"/><use transform="matrix(0.09876543209876544,0,0,0.09876543209876544,25.58024691358025,0)" xlink:href="#u"/><use transform="matrix(0.09876543209876544,0,0,0.09876543209876544,45.33333333333334,0)" xlink:href="#u"/><use transform="matrix(0.09876543209876544,0,0,0.09876543209876544,65.08641975308643,0)" xlink:href="#r"/><use transform="matrix(0.09876543209876544,0,0,0.09876543209876544,84.83950617283952,0)" xlink:href="#p"/><use transform="matrix(0.09876543209876544,0,0,0.09876543209876544,106.46913580246914,0)" xlink:href="#m"/></g><path d="M24-248c120-7 223 5 221 122C244-46 201 0 124 0H24v-248zM76-40c74 7 117-18 117-86 0-67-45-88-117-82v168" id="v"/><path d="M240-174c0 40-23 61-54 70L253 0h-59l-57-94H76V0H24v-248c93 4 217-23 216 74zM76-134c48-2 112 12 112-38 0-48-66-32-112-35v73" id="w"/><g id="e"><use transform="matrix(0.09876543209876544,0,0,0.09876543209876544,0,0)" xlink:href="#t"/><use transform="matrix(0.09876543209876544,0,0,0.09876543209876544,25.58024691358025,0)" xlink:href="#v"/><use transform="matrix(0.09876543209876544,0,0,0.09876543209876544,51.1604938271605,0)" xlink:href="#j"/><use transform="matrix(0.09876543209876544,0,0,0.09876543209876544,74.8641975308642,0)" xlink:href="#w"/></g><path d="M25 0v-261h50V0H25" id="x"/><g id="f"><use transform="matrix(0.06790123456790124,0,0,0.06790123456790124,0,0)" xlink:href="#w"/><use transform="matrix(0.06790123456790124,0,0,0.06790123456790124,17.58641975308642,0)" xlink:href="#r"/><use transform="matrix(0.06790123456790124,0,0,0.06790123456790124,31.16666666666667,0)" xlink:href="#x"/><use transform="matrix(0.06790123456790124,0,0,0.06790123456790124,37.9567901234568,0)" xlink:href="#r"/><use transform="matrix(0.06790123456790124,0,0,0.06790123456790124,51.537037037037045,0)" xlink:href="#n"/><use transform="matrix(0.06790123456790124,0,0,0.06790123456790124,65.11728395061729,0)" xlink:href="#l"/><use transform="matrix(0.06790123456790124,0,0,0.06790123456790124,78.69753086419755,0)" xlink:href="#r"/></g><path d="M123 10C108 53 80 86 19 72V37c35 8 53-11 59-39L3-190h52l48 148c12-52 28-100 44-148h51" id="y"/><g id="g"><use transform="matrix(0.06790123456790124,0,0,0.06790123456790124,0,0)" xlink:href="#v"/><use transform="matrix(0.06790123456790124,0,0,0.06790123456790124,17.58641975308642,0)" xlink:href="#r"/><use transform="matrix(0.06790123456790124,0,0,0.06790123456790124,31.16666666666667,0)" xlink:href="#u"/><use transform="matrix(0.06790123456790124,0,0,0.06790123456790124,44.74691358024692,0)" xlink:href="#n"/><use transform="matrix(0.06790123456790124,0,0,0.06790123456790124,58.32716049382716,0)" xlink:href="#y"/></g><g id="h"><use transform="matrix(0.06790123456790124,0,0,0.06790123456790124,0,0)" xlink:href="#t"/><use transform="matrix(0.06790123456790124,0,0,0.06790123456790124,17.58641975308642,0)" xlink:href="#m"/><use transform="matrix(0.06790123456790124,0,0,0.06790123456790124,25.66666666666667,0)" xlink:href="#m"/><use transform="matrix(0.06790123456790124,0,0,0.06790123456790124,33.74691358024692,0)" xlink:href="#n"/><use transform="matrix(0.06790123456790124,0,0,0.06790123456790124,47.327160493827165,0)" xlink:href="#u"/><use transform="matrix(0.06790123456790124,0,0,0.06790123456790124,60.90740740740741,0)" xlink:href="#s"/></g></defs></g></svg>